<svg width="820" viewBox="0 0 820 600" xmlns="http://www.w3.org/2000/svg" style="background:#ffffff; font-family: system-ui, -apple-system, sans-serif;">
<defs>
  <marker id="arrow" viewBox="0 0 10 10" refX="8" refY="5" markerWidth="6" markerHeight="6" orient="auto-start-reverse">
    <path d="M2 1L8 5L2 9" fill="none" stroke="context-stroke" stroke-width="1.5" stroke-linecap="round" stroke-linejoin="round"/>
  </marker>
</defs>

<!-- Navegador -->
<rect x="330" y="20" width="160" height="44" rx="8" fill="#F1EFE8" stroke="#B4B2A9" stroke-width="0.5"/>
<rect x="338" y="32" width="20" height="20" rx="4" fill="white" opacity="0.85"/>
<rect x="340" y="35" width="16" height="12" rx="2" fill="none" stroke="#6E7681" stroke-width="1.2"/>
<line x1="340" y1="39" x2="356" y2="39" stroke="#6E7681" stroke-width="1.2"/>
<circle cx="343" cy="37" r="1" fill="#6E7681"/>
<circle cx="346" cy="37" r="1" fill="#6E7681"/>
<text x="427" y="42" text-anchor="middle" dominant-baseline="central" font-size="14" font-weight="500" fill="#2C2C2A">Navegador</text>

<line x1="410" y1="64" x2="410" y2="96" stroke="#888780" stroke-width="1.5" marker-end="url(#arrow)"/>
<text x="422" y="86" font-size="12" fill="#5F5E5A">HTTPS</text>

<!-- VPS container -->
<text x="76" y="96" font-size="12" fill="#5F5E5A">VPS Hostinger</text>
<rect x="40" y="100" width="740" height="228" rx="12" fill="none" stroke="#B4B2A9" stroke-width="1" stroke-dasharray="6 3"/>

<!-- Traefik (centered: x=290 w=240 center=410) -->
<rect x="290" y="110" width="240" height="56" rx="8" fill="#E1F5EE" stroke="#0F6E56" stroke-width="0.5"/>
<rect x="298" y="128" width="20" height="20" rx="4" fill="white" opacity="0.85"/>
<polygon points="308,130.5 315,134.5 315,141.5 308,145.5 301,141.5 301,134.5" fill="none" stroke="#29ABE2" stroke-width="1.5"/>
<line x1="305" y1="133.5" x2="311" y2="133.5" stroke="#29ABE2" stroke-width="2" stroke-linecap="round"/>
<line x1="308" y1="133.5" x2="308" y2="142.5" stroke="#29ABE2" stroke-width="2" stroke-linecap="round"/>
<text x="427" y="127" text-anchor="middle" dominant-baseline="central" font-size="14" font-weight="500" fill="#085041">Traefik v3</text>
<text x="410" y="148" text-anchor="middle" dominant-baseline="central" font-size="12" fill="#0F6E56">proxy reverso + TLS automático</text>

<!-- Traefik → Frontend -->
<path d="M345 166 L345 186 L150 186 L150 208" fill="none" stroke="#888780" stroke-width="1.5" marker-end="url(#arrow)"/>
<!-- Traefik → API -->
<path d="M397 166 L397 208" fill="none" stroke="#888780" stroke-width="1.5" marker-end="url(#arrow)"/>
<!-- Traefik → MCP -->
<path d="M475 166 L475 186 L648 186 L648 208" fill="none" stroke="#888780" stroke-width="1.5" marker-end="url(#arrow)"/>

<!-- Frontend (x=55 w=180 center=145) -->
<rect x="55" y="208" width="180" height="56" rx="8" fill="#EEEDFE" stroke="#534AB7" stroke-width="0.5"/>
<rect x="63" y="226" width="20" height="20" rx="4" fill="white" opacity="0.85"/>
<path d="M74 227.5C76.5 227.5 78.5 229.5 76.5 232L70 239C71.5 239 73 238.5 73.5 237C74.5 239 73 242 70.5 242C68 242 66.5 240 68 237.5L74.5 231C73 231 72 231.5 71.5 233C70.5 230.5 71.5 227.5 74 227.5Z" fill="#FF3E00"/>
<text x="159" y="227" text-anchor="middle" dominant-baseline="central" font-size="14" font-weight="500" fill="#26215C">Frontend</text>
<text x="145" y="247" text-anchor="middle" dominant-baseline="central" font-size="12" fill="#534AB7">SvelteKit 5 + Tailwind</text>

<!-- API (x=305 w=185 center=397) -->
<rect x="305" y="208" width="185" height="56" rx="8" fill="#E6F1FB" stroke="#185FA5" stroke-width="0.5"/>
<rect x="313" y="226" width="20" height="20" rx="4" fill="white" opacity="0.85"/>
<polygon points="323,228 317,236 321,236 319,244 327,234 323,234" fill="#009688"/>
<text x="414" y="227" text-anchor="middle" dominant-baseline="central" font-size="14" font-weight="500" fill="#042C53">API</text>
<text x="397" y="247" text-anchor="middle" dominant-baseline="central" font-size="12" fill="#185FA5">FastAPI + SQLAlchemy</text>

<!-- MCP Server (x=555 w=185 center=647) -->
<rect x="555" y="208" width="185" height="56" rx="8" fill="#FFF3E0" stroke="#E65100" stroke-width="0.5"/>
<rect x="563" y="226" width="20" height="20" rx="4" fill="white" opacity="0.85"/>
<rect x="566" y="229" width="14" height="13" rx="2.5" fill="none" stroke="#E65100" stroke-width="1.5"/>
<line x1="570" y1="233" x2="574" y2="233" stroke="#E65100" stroke-width="1.3" stroke-linecap="round"/>
<line x1="570" y1="236" x2="576" y2="236" stroke="#E65100" stroke-width="1.3" stroke-linecap="round"/>
<line x1="570" y1="239" x2="574" y2="239" stroke="#E65100" stroke-width="1.3" stroke-linecap="round"/>
<text x="664" y="227" text-anchor="middle" dominant-baseline="central" font-size="14" font-weight="500" fill="#4A1F00">MCP Server</text>
<text x="648" y="247" text-anchor="middle" dominant-baseline="central" font-size="12" fill="#E65100">FastMCP · rachao tools</text>

<!-- MCP → API (internal dashed) -->
<path d="M555 234 L490 234" fill="none" stroke="#888780" stroke-width="1.2" stroke-dasharray="3 2" marker-end="url(#arrow)"/>

<!-- API → Supabase -->
<line x1="397" y1="264" x2="397" y2="334" stroke="#888780" stroke-width="1.5" marker-end="url(#arrow)"/>

<!-- API → Twilio (dashed, left route) -->
<path d="M305 232 L260 232 L260 424 L255 424" fill="none" stroke="#888780" stroke-width="1.5" stroke-dasharray="4 3" marker-end="url(#arrow)"/>

<!-- API → Anthropic (dashed, right of Supabase) -->
<path d="M490 240 L520 240 L520 424 L512 424" fill="none" stroke="#888780" stroke-width="1.5" stroke-dasharray="4 3" marker-end="url(#arrow)"/>
<text x="528" y="338" font-size="11" fill="#6B21A8">chat</text>

<!-- API → Stripe (dashed, far right route) -->
<path d="M490 220 L790 220 L790 424 L770 424" fill="none" stroke="#888780" stroke-width="1.5" stroke-dasharray="4 3" marker-end="url(#arrow)"/>

<!-- Supabase (x=305 w=185 center=397) -->
<rect x="305" y="334" width="185" height="56" rx="8" fill="#EAF3DE" stroke="#3B6D11" stroke-width="0.5"/>
<rect x="313" y="352" width="20" height="20" rx="4" fill="white" opacity="0.85"/>
<polygon points="323,354 317,363 321.5,363 319,371 327.5,362 322.5,362" fill="#3ECF8E"/>
<text x="414" y="353" text-anchor="middle" dominant-baseline="central" font-size="14" font-weight="500" fill="#173404">Supabase PostgreSQL</text>
<text x="397" y="371" text-anchor="middle" dominant-baseline="central" font-size="12" fill="#3B6D11">sa-east-1 · São Paulo</text>

<!-- Serviços externos -->
<text x="76" y="400" font-size="12" fill="#5F5E5A">Serviços externos</text>
<rect x="40" y="404" width="740" height="72" rx="12" fill="none" stroke="#B4B2A9" stroke-width="1" stroke-dasharray="6 3"/>

<!-- Twilio (x=50 w=205) -->
<rect x="50" y="416" width="205" height="48" rx="8" fill="#FAECE7" stroke="#993C1D" stroke-width="0.5"/>
<rect x="58" y="430" width="20" height="20" rx="4" fill="white" opacity="0.9"/>
<rect x="59.5" y="431.5" width="17" height="17" rx="3" fill="#F22F46"/>
<circle cx="65" cy="437.5" r="2.5" fill="white"/>
<circle cx="71" cy="442.5" r="2.5" fill="white"/>
<text x="165" y="431" text-anchor="middle" dominant-baseline="central" font-size="14" font-weight="500" fill="#4A1B0C">Twilio Verify</text>
<text x="152" y="449" text-anchor="middle" dominant-baseline="central" font-size="12" fill="#993C1D">OTP · SMS / WhatsApp</text>

<!-- Anthropic (x=307 w=205 center=409) -->
<rect x="307" y="416" width="205" height="48" rx="8" fill="#F0EAF8" stroke="#6B21A8" stroke-width="0.5"/>
<rect x="315" y="430" width="20" height="20" rx="4" fill="white" opacity="0.9"/>
<circle cx="325" cy="440" r="7" fill="none" stroke="#6B21A8" stroke-width="1.5"/>
<path d="M321 440 Q325 435 329 440 Q325 445 321 440" fill="#6B21A8" opacity="0.6"/>
<text x="422" y="431" text-anchor="middle" dominant-baseline="central" font-size="14" font-weight="500" fill="#3B0764">Anthropic API</text>
<text x="410" y="449" text-anchor="middle" dominant-baseline="central" font-size="12" fill="#6B21A8">Claude · chat assistente</text>

<!-- Stripe (x=563 w=207 center=666) -->
<rect x="563" y="416" width="207" height="48" rx="8" fill="#EEEDFE" stroke="#534AB7" stroke-width="0.5"/>
<rect x="571" y="430" width="20" height="20" rx="4" fill="white" opacity="0.9"/>
<rect x="572.5" y="431.5" width="17" height="17" rx="3" fill="#635BFF"/>
<path d="M584 437.5C581.5 435.5 579 436.5 579.5 438.5C580 440.5 583.5 440.5 583.5 443C583.5 445.5 580.5 445.5 578.5 444.5" fill="none" stroke="white" stroke-width="2" stroke-linecap="round"/>
<text x="678" y="431" text-anchor="middle" dominant-baseline="central" font-size="14" font-weight="500" fill="#26215C">Stripe</text>
<text x="666" y="449" text-anchor="middle" dominant-baseline="central" font-size="12" fill="#534AB7">assinaturas + webhooks</text>

<!-- CI/CD -->
<text x="76" y="490" font-size="12" fill="#5F5E5A">CI/CD</text>
<rect x="40" y="494" width="740" height="82" rx="12" fill="none" stroke="#B4B2A9" stroke-width="1" stroke-dasharray="6 3"/>

<!-- GitHub Actions -->
<rect x="50" y="510" width="210" height="50" rx="8" fill="#FAEEDA" stroke="#854F0B" stroke-width="0.5"/>
<rect x="58" y="525" width="20" height="20" rx="4" fill="white" opacity="0.85"/>
<circle cx="68" cy="535" r="7.5" fill="#24292e"/>
<polygon points="66.5,532 72,535 66.5,538" fill="white"/>
<text x="165" y="526" text-anchor="middle" dominant-baseline="central" font-size="14" font-weight="500" fill="#412402">GitHub Actions</text>
<text x="155" y="544" text-anchor="middle" dominant-baseline="central" font-size="12" fill="#854F0B">testes + build + deploy</text>

<line x1="260" y1="535" x2="300" y2="535" stroke="#888780" stroke-width="1.5" marker-end="url(#arrow)"/>

<!-- GHCR -->
<rect x="300" y="510" width="210" height="50" rx="8" fill="#FAEEDA" stroke="#854F0B" stroke-width="0.5"/>
<rect x="308" y="525" width="20" height="20" rx="4" fill="white" opacity="0.85"/>
<rect x="311" y="534" width="14" height="9" rx="1.5" fill="none" stroke="#6E7681" stroke-width="1.3"/>
<path d="M311 534 L313.5 529.5 L322.5 529.5 L325 534" fill="none" stroke="#6E7681" stroke-width="1.3"/>
<line x1="318" y1="529.5" x2="318" y2="534" stroke="#6E7681" stroke-width="1.3"/>
<text x="413" y="526" text-anchor="middle" dominant-baseline="central" font-size="14" font-weight="500" fill="#412402">GHCR</text>
<text x="405" y="544" text-anchor="middle" dominant-baseline="central" font-size="12" fill="#854F0B">container registry</text>

<line x1="510" y1="535" x2="550" y2="535" stroke="#888780" stroke-width="1.5" marker-end="url(#arrow)"/>

<!-- SSH Deploy -->
<rect x="550" y="510" width="220" height="50" rx="8" fill="#FAEEDA" stroke="#854F0B" stroke-width="0.5"/>
<rect x="558" y="525" width="20" height="20" rx="4" fill="white" opacity="0.85"/>
<rect x="560" y="528" width="16" height="13" rx="2" fill="#1E293B"/>
<path d="M563 533 L567 535.5 L563 538" fill="none" stroke="#22C55E" stroke-width="1.5" stroke-linecap="round" stroke-linejoin="round"/>
<line x1="569" y1="538" x2="573" y2="538" stroke="#22C55E" stroke-width="1.5" stroke-linecap="round"/>
<text x="671" y="526" text-anchor="middle" dominant-baseline="central" font-size="14" font-weight="500" fill="#412402">SSH Deploy</text>
<text x="660" y="544" text-anchor="middle" dominant-baseline="central" font-size="12" fill="#854F0B">docker compose up</text>
</svg>
