<svg width="680" viewBox="0 0 680 580" xmlns="http://www.w3.org/2000/svg" style="background:#ffffff; font-family: system-ui, -apple-system, sans-serif;">
<defs>
  <marker id="arrow" viewBox="0 0 10 10" refX="8" refY="5" markerWidth="6" markerHeight="6" orient="auto-start-reverse">
    <path d="M2 1L8 5L2 9" fill="none" stroke="context-stroke" stroke-width="1.5" stroke-linecap="round" stroke-linejoin="round"/>
  </marker>
</defs>

<!-- Navegador -->
<rect x="260" y="20" width="160" height="44" rx="8" fill="#F1EFE8" stroke="#B4B2A9" stroke-width="0.5"/>
<rect x="268" y="32" width="20" height="20" rx="4" fill="white" opacity="0.85"/>
<rect x="270" y="35" width="16" height="12" rx="2" fill="none" stroke="#6E7681" stroke-width="1.2"/>
<line x1="270" y1="39" x2="286" y2="39" stroke="#6E7681" stroke-width="1.2"/>
<circle cx="273" cy="37" r="1" fill="#6E7681"/>
<circle cx="276" cy="37" r="1" fill="#6E7681"/>
<text x="357" y="42" text-anchor="middle" dominant-baseline="central" font-size="14" font-weight="500" fill="#2C2C2A">Navegador</text>

<line x1="340" y1="64" x2="340" y2="96" stroke="#888780" stroke-width="1.5" marker-end="url(#arrow)"/>
<text x="352" y="86" font-size="12" fill="#5F5E5A">HTTPS</text>

<!-- VPS container -->
<text x="76" y="96" font-size="12" fill="#5F5E5A">VPS Hostinger</text>
<rect x="55" y="100" width="570" height="218" rx="12" fill="none" stroke="#B4B2A9" stroke-width="1" stroke-dasharray="6 3"/>

<!-- Traefik -->
<rect x="230" y="110" width="220" height="56" rx="8" fill="#E1F5EE" stroke="#0F6E56" stroke-width="0.5"/>
<rect x="238" y="128" width="20" height="20" rx="4" fill="white" opacity="0.85"/>
<polygon points="248,130.5 255,134.5 255,141.5 248,145.5 241,141.5 241,134.5" fill="none" stroke="#29ABE2" stroke-width="1.5"/>
<line x1="245" y1="133.5" x2="251" y2="133.5" stroke="#29ABE2" stroke-width="2" stroke-linecap="round"/>
<line x1="248" y1="133.5" x2="248" y2="142.5" stroke="#29ABE2" stroke-width="2" stroke-linecap="round"/>
<text x="357" y="127" text-anchor="middle" dominant-baseline="central" font-size="14" font-weight="500" fill="#085041">Traefik v3</text>
<text x="340" y="148" text-anchor="middle" dominant-baseline="central" font-size="12" fill="#0F6E56">proxy reverso + TLS automático</text>

<path d="M285 166 L285 188 L162 188 L162 208" fill="none" stroke="#888780" stroke-width="1.5" marker-end="url(#arrow)"/>
<path d="M395 166 L395 188 L517 188 L517 208" fill="none" stroke="#888780" stroke-width="1.5" marker-end="url(#arrow)"/>

<!-- Frontend -->
<rect x="65" y="208" width="195" height="56" rx="8" fill="#EEEDFE" stroke="#534AB7" stroke-width="0.5"/>
<rect x="73" y="226" width="20" height="20" rx="4" fill="white" opacity="0.85"/>
<path d="M84 227.5C86.5 227.5 88.5 229.5 86.5 232L80 239C81.5 239 83 238.5 83.5 237C84.5 239 83 242 80.5 242C78 242 76.5 240 78 237.5L84.5 231C83 231 82 231.5 81.5 233C80.5 230.5 81.5 227.5 84 227.5Z" fill="#FF3E00"/>
<text x="179" y="227" text-anchor="middle" dominant-baseline="central" font-size="14" font-weight="500" fill="#26215C">Frontend</text>
<text x="162" y="245" text-anchor="middle" dominant-baseline="central" font-size="12" fill="#534AB7">SvelteKit 5 + Tailwind</text>

<!-- API -->
<rect x="420" y="208" width="195" height="56" rx="8" fill="#E6F1FB" stroke="#185FA5" stroke-width="0.5"/>
<rect x="428" y="226" width="20" height="20" rx="4" fill="white" opacity="0.85"/>
<polygon points="438,228 432,236 436,236 434,244 442,234 438,234" fill="#009688"/>
<text x="534" y="227" text-anchor="middle" dominant-baseline="central" font-size="14" font-weight="500" fill="#042C53">API</text>
<text x="517" y="245" text-anchor="middle" dominant-baseline="central" font-size="12" fill="#185FA5">FastAPI + SQLAlchemy</text>

<!-- API → Supabase -->
<line x1="517" y1="264" x2="517" y2="328" stroke="#888780" stroke-width="1.5" marker-end="url(#arrow)"/>

<!-- API → Twilio -->
<path d="M420 228 L365 228 L365 398 L288 398" fill="none" stroke="#888780" stroke-width="1.5" stroke-dasharray="4 3" marker-end="url(#arrow)"/>

<!-- API → Stripe -->
<path d="M615 228 L638 228 L638 398 L612 398" fill="none" stroke="#888780" stroke-width="1.5" stroke-dasharray="4 3" marker-end="url(#arrow)"/>

<!-- Supabase -->
<rect x="407" y="328" width="220" height="56" rx="8" fill="#EAF3DE" stroke="#3B6D11" stroke-width="0.5"/>
<rect x="415" y="346" width="20" height="20" rx="4" fill="white" opacity="0.85"/>
<polygon points="425,329.5 419,338.5 423.5,338.5 421,346.5 429.5,336 424.5,336" fill="#3ECF8E" transform="translate(0,18)"/>
<text x="534" y="347" text-anchor="middle" dominant-baseline="central" font-size="14" font-weight="500" fill="#173404">Supabase PostgreSQL</text>
<text x="517" y="365" text-anchor="middle" dominant-baseline="central" font-size="12" fill="#3B6D11">sa-east-1 · São Paulo</text>

<!-- Serviços externos -->
<text x="76" y="378" font-size="12" fill="#5F5E5A">Serviços externos</text>
<rect x="55" y="382" width="570" height="72" rx="12" fill="none" stroke="#B4B2A9" stroke-width="1" stroke-dasharray="6 3"/>

<!-- Twilio -->
<rect x="68" y="394" width="220" height="48" rx="8" fill="#FAECE7" stroke="#993C1D" stroke-width="0.5"/>
<rect x="76" y="408" width="20" height="20" rx="4" fill="white" opacity="0.9"/>
<rect x="77.5" y="409.5" width="17" height="17" rx="3" fill="#F22F46"/>
<circle cx="83" cy="415.5" r="2.5" fill="white"/>
<circle cx="89" cy="420.5" r="2.5" fill="white"/>
<text x="195" y="409" text-anchor="middle" dominant-baseline="central" font-size="14" font-weight="500" fill="#4A1B0C">Twilio Verify</text>
<text x="178" y="427" text-anchor="middle" dominant-baseline="central" font-size="12" fill="#993C1D">OTP · SMS / WhatsApp</text>

<!-- Stripe -->
<rect x="392" y="394" width="220" height="48" rx="8" fill="#EEEDFE" stroke="#534AB7" stroke-width="0.5"/>
<rect x="400" y="408" width="20" height="20" rx="4" fill="white" opacity="0.9"/>
<rect x="401.5" y="409.5" width="17" height="17" rx="3" fill="#635BFF"/>
<path d="M413 415.5C410.5 413.5 408 414.5 408.5 416.5C409 418.5 412.5 418.5 412.5 421C412.5 423.5 409.5 423.5 407.5 422.5" fill="none" stroke="white" stroke-width="2" stroke-linecap="round"/>
<text x="519" y="409" text-anchor="middle" dominant-baseline="central" font-size="14" font-weight="500" fill="#26215C">Stripe</text>
<text x="502" y="427" text-anchor="middle" dominant-baseline="central" font-size="12" fill="#534AB7">assinaturas + webhooks</text>

<!-- CI/CD -->
<text x="76" y="474" font-size="12" fill="#5F5E5A">CI/CD</text>
<rect x="55" y="478" width="570" height="82" rx="12" fill="none" stroke="#B4B2A9" stroke-width="1" stroke-dasharray="6 3"/>

<!-- GitHub Actions -->
<rect x="68" y="494" width="160" height="50" rx="8" fill="#FAEEDA" stroke="#854F0B" stroke-width="0.5"/>
<rect x="76" y="509" width="20" height="20" rx="4" fill="white" opacity="0.85"/>
<circle cx="86" cy="519" r="7.5" fill="#24292e"/>
<polygon points="84.5,516 90,519 84.5,522" fill="white"/>
<text x="165" y="510" text-anchor="middle" dominant-baseline="central" font-size="14" font-weight="500" fill="#412402">GitHub Actions</text>
<text x="148" y="528" text-anchor="middle" dominant-baseline="central" font-size="12" fill="#854F0B">build + E2E tests</text>

<line x1="228" y1="519" x2="256" y2="519" stroke="#888780" stroke-width="1.5" marker-end="url(#arrow)"/>

<!-- GHCR -->
<rect x="256" y="494" width="160" height="50" rx="8" fill="#FAEEDA" stroke="#854F0B" stroke-width="0.5"/>
<rect x="264" y="509" width="20" height="20" rx="4" fill="white" opacity="0.85"/>
<rect x="267" y="518" width="14" height="9" rx="1.5" fill="none" stroke="#6E7681" stroke-width="1.3"/>
<path d="M267 518 L269.5 513.5 L278.5 513.5 L281 518" fill="none" stroke="#6E7681" stroke-width="1.3"/>
<line x1="274" y1="513.5" x2="274" y2="518" stroke="#6E7681" stroke-width="1.3"/>
<text x="353" y="510" text-anchor="middle" dominant-baseline="central" font-size="14" font-weight="500" fill="#412402">GHCR</text>
<text x="336" y="528" text-anchor="middle" dominant-baseline="central" font-size="12" fill="#854F0B">container registry</text>

<line x1="416" y1="519" x2="444" y2="519" stroke="#888780" stroke-width="1.5" marker-end="url(#arrow)"/>

<!-- SSH Deploy -->
<rect x="444" y="494" width="168" height="50" rx="8" fill="#FAEEDA" stroke="#854F0B" stroke-width="0.5"/>
<rect x="452" y="509" width="20" height="20" rx="4" fill="white" opacity="0.85"/>
<rect x="454" y="512" width="16" height="13" rx="2" fill="#1E293B"/>
<path d="M457 517 L461 519.5 L457 522" fill="none" stroke="#22C55E" stroke-width="1.5" stroke-linecap="round" stroke-linejoin="round"/>
<line x1="463" y1="522" x2="467" y2="522" stroke="#22C55E" stroke-width="1.5" stroke-linecap="round"/>
<text x="545" y="510" text-anchor="middle" dominant-baseline="central" font-size="14" font-weight="500" fill="#412402">SSH Deploy</text>
<text x="528" y="528" text-anchor="middle" dominant-baseline="central" font-size="12" fill="#854F0B">docker compose up</text>
</svg>
